<?xml version="1.0" encoding="UTF-8" standalone="no"?>
<!DOCTYPE svg PUBLIC "-//W3C//DTD SVG 1.1//EN" "http://www.w3.org/Graphics/SVG/1.1/DTD/svg11.dtd">
<svg width="100%" height="100%" viewBox="0 0 822 161" version="1.1" xmlns="http://www.w3.org/2000/svg" xmlns:xlink="http://www.w3.org/1999/xlink" xml:space="preserve" xmlns:serif="http://www.serif.com/" style="fill-rule:evenodd;clip-rule:evenodd;stroke-linejoin:round;stroke-miterlimit:2;">
    <g transform="matrix(1,0,0,1,-812.537,-539.073)">
        <g transform="matrix(1,0,0,1,736.316,-767.164)">
            <g transform="matrix(3.02139,0,0,3.02139,-129.233,1209.55)">
                <path d="M82.5,40.254L82.5,48.5L106.5,48.5L106.79,40.25L107.081,32L94.79,32.004L82.5,32.007L82.5,40.254M70.536,49.732C68.199,53.172 68,54.332 68,64.532C68,76.561 68.556,78 73.2,78L76,78L76,69.035C76,61.195 76.243,59.94 77.934,59.035C80.957,57.417 110.488,57.678 111.863,59.335C112.472,60.069 113.025,64.569 113.092,69.335L113.214,78L116.572,78C121.094,78 122,75.966 122,65.809C122,56.153 120.92,51.609 117.85,48.34C114.763,45.054 113.654,45.43 115.559,49.115C116.445,50.828 116.789,52.611 116.323,53.077C115.856,53.544 106.031,53.971 94.488,54.028L73.5,54.131L73.597,51.816C73.651,50.542 74.036,48.712 74.454,47.75C75.851,44.534 73.135,45.907 70.536,49.732M75.716,48.904C74.772,50.502 74,52.077 74,52.404C74,52.732 83.491,53 95.092,53L116.184,53L114.291,49.75C112.04,45.885 108,44.716 108,47.93C108,49.918 107.48,50 94.906,50C82.654,50 81.779,49.872 81.29,48C80.529,45.092 77.696,45.551 75.716,48.904M116,58.5C116,59.325 116.675,60 117.5,60C118.325,60 119,59.325 119,58.5C119,57.675 118.325,57 117.5,57C116.675,57 116,57.675 116,58.5M78.75,60.08C76.744,61.248 76.378,64.939 78.25,65.122C80.471,65.338 84.241,65.347 98.25,65.172L112,65L112,62.617C112,60.99 111.285,60.042 109.75,59.63C105.989,58.622 80.621,58.99 78.75,60.08M116,62.5C116,63.325 116.675,64 117.5,64C118.325,64 119,63.325 119,62.5C119,61.675 118.325,61 117.5,61C116.675,61 116,61.675 116,62.5M78.958,76.593C77.331,80.219 76,83.558 76,84.013C76,84.467 84.325,84.891 94.5,84.955C106.55,85.031 113,84.715 113,84.047C113,83.483 111.827,80.091 110.394,76.511L107.787,70L81.916,70L78.958,76.593M86,73C86,73.55 86.927,74 88.059,74C89.191,74 89.84,73.55 89.5,73C89.16,72.45 88.234,72 87.441,72C86.648,72 86,72.45 86,73M97.016,75.446C95.343,76.372 93.963,76.516 92.787,75.886C89.478,74.115 79.672,77.229 78.169,80.529L77.043,83L111.903,83L110.557,79.75C108.349,74.421 102.326,72.506 97.016,75.446" style="fill:white;"/>
            </g>
        </g>
        <g transform="matrix(1,0,0,1,736.316,-767.164)">
            <g transform="matrix(2.29047,0,0,2.29047,-2422.73,-28.9642)">
                <path d="M1193.09,605.772C1193.09,605.138 1193.14,604.497 1193.24,603.847C1193.34,603.197 1193.54,602.597 1193.84,602.047C1194.14,601.497 1194.58,601.047 1195.17,600.697C1195.75,600.347 1196.52,600.172 1197.49,600.172L1220.74,600.172C1221.01,600.172 1221.14,600.305 1221.14,600.572C1221.11,601.072 1221.02,601.638 1220.89,602.272C1220.76,602.905 1220.53,603.513 1220.22,604.097C1219.9,604.68 1219.47,605.172 1218.94,605.572C1218.41,605.972 1217.72,606.172 1216.89,606.172L1210.59,606.172L1210.59,630.872C1210.59,631.905 1210.41,632.713 1210.04,633.297C1209.67,633.88 1209.19,634.305 1208.59,634.572C1207.99,634.838 1207.31,635.005 1206.54,635.072C1205.77,635.138 1204.99,635.172 1204.19,635.172C1203.92,635.172 1203.79,635.038 1203.79,634.772L1203.79,606.172L1193.49,606.172C1193.22,606.172 1193.09,606.038 1193.09,605.772Z" style="fill:white;fill-rule:nonzero;"/>
                <path d="M1233.99,608.472C1235.89,608.472 1237.65,608.813 1239.27,609.497C1240.88,610.18 1242.28,611.105 1243.47,612.272C1244.65,613.438 1245.58,614.822 1246.27,616.422C1246.95,618.022 1247.29,619.755 1247.29,621.622C1247.29,623.488 1246.96,625.255 1246.29,626.922C1245.62,628.588 1244.69,630.047 1243.49,631.297C1242.29,632.547 1240.88,633.538 1239.27,634.272C1237.65,635.005 1235.89,635.372 1233.99,635.372C1232.09,635.372 1230.33,635.005 1228.72,634.272C1227.1,633.538 1225.69,632.547 1224.49,631.297C1223.29,630.047 1222.35,628.588 1221.67,626.922C1220.98,625.255 1220.64,623.488 1220.64,621.622C1220.64,619.755 1220.98,618.022 1221.67,616.422C1222.35,614.822 1223.29,613.438 1224.49,612.272C1225.69,611.105 1227.1,610.18 1228.72,609.497C1230.33,608.813 1232.09,608.472 1233.99,608.472ZM1233.99,629.872C1235.02,629.872 1235.95,629.613 1236.77,629.097C1237.58,628.58 1238.27,627.922 1238.82,627.122C1239.37,626.322 1239.79,625.43 1240.09,624.447C1240.39,623.463 1240.54,622.522 1240.54,621.622C1240.54,620.722 1240.39,619.813 1240.09,618.897C1239.79,617.98 1239.36,617.155 1238.79,616.422C1238.22,615.688 1237.54,615.097 1236.74,614.647C1235.94,614.197 1235.02,613.972 1233.99,613.972C1232.96,613.972 1232.03,614.197 1231.22,614.647C1230.4,615.097 1229.72,615.688 1229.17,616.422C1228.62,617.155 1228.19,617.98 1227.89,618.897C1227.59,619.813 1227.44,620.722 1227.44,621.622C1227.44,622.555 1227.59,623.505 1227.89,624.472C1228.19,625.438 1228.62,626.322 1229.17,627.122C1229.72,627.922 1230.4,628.58 1231.22,629.097C1232.03,629.613 1232.96,629.872 1233.99,629.872Z" style="fill:white;fill-rule:nonzero;"/>
                <path d="M1252.79,613.872C1252.79,612.905 1252.96,612.08 1253.29,611.397C1253.62,610.713 1254.08,610.163 1254.67,609.747C1255.25,609.33 1255.92,609.03 1256.69,608.847C1257.46,608.663 1258.27,608.572 1259.14,608.572C1259.41,608.572 1259.54,608.705 1259.54,608.972L1259.54,611.572C1259.54,611.705 1259.56,611.772 1259.59,611.772C1259.66,611.772 1259.71,611.722 1259.74,611.622C1260.44,610.655 1261.27,609.88 1262.24,609.297C1263.21,608.713 1264.37,608.422 1265.74,608.422C1267.11,608.422 1268.37,608.705 1269.52,609.272C1270.67,609.838 1271.67,610.588 1272.52,611.522C1273.37,612.455 1274.03,613.538 1274.52,614.772C1275,616.005 1275.24,617.288 1275.24,618.622L1275.24,634.772C1275.24,635.038 1275.11,635.172 1274.84,635.172C1274.11,635.172 1273.36,635.138 1272.59,635.072C1271.82,635.005 1271.13,634.822 1270.52,634.522C1269.9,634.222 1269.4,633.763 1269.02,633.147C1268.63,632.53 1268.44,631.672 1268.44,630.572L1268.44,619.072C1268.44,618.438 1268.34,617.813 1268.14,617.197C1267.94,616.58 1267.65,616.022 1267.27,615.522C1266.88,615.022 1266.42,614.622 1265.87,614.322C1265.32,614.022 1264.69,613.872 1263.99,613.872C1263.46,613.872 1262.92,613.972 1262.39,614.172C1261.86,614.372 1261.37,614.638 1260.94,614.972C1260.51,615.305 1260.17,615.705 1259.92,616.172C1259.67,616.638 1259.54,617.155 1259.54,617.722L1259.54,630.572C1259.54,631.672 1259.38,632.53 1259.07,633.147C1258.75,633.763 1258.32,634.222 1257.77,634.522C1257.22,634.822 1256.55,635.005 1255.77,635.072C1254.98,635.138 1254.12,635.172 1253.19,635.172C1252.92,635.172 1252.79,635.038 1252.79,634.772L1252.79,613.872Z" style="fill:white;fill-rule:nonzero;"/>
                <path d="M1306.29,619.722C1306.36,620.288 1306.26,620.822 1305.99,621.322C1305.72,621.822 1305.37,622.272 1304.92,622.672C1304.47,623.072 1303.94,623.413 1303.34,623.697C1302.74,623.98 1302.14,624.188 1301.54,624.322L1288.39,625.622C1288.69,627.155 1289.39,628.28 1290.49,628.997C1291.59,629.713 1292.99,630.072 1294.69,630.072C1296.02,630.072 1297.29,629.913 1298.49,629.597C1299.69,629.28 1300.92,628.838 1302.19,628.272C1302.52,628.138 1302.77,628.072 1302.94,628.072C1303.24,628.072 1303.5,628.163 1303.72,628.347C1303.93,628.53 1304.07,628.772 1304.14,629.072C1304.21,629.372 1304.19,629.688 1304.09,630.022C1303.99,630.355 1303.79,630.672 1303.49,630.972C1302.96,631.472 1302.36,631.997 1301.69,632.547C1301.02,633.097 1300.26,633.597 1299.39,634.047C1298.52,634.497 1297.55,634.863 1296.47,635.147C1295.38,635.43 1294.19,635.572 1292.89,635.572C1290.86,635.572 1289.08,635.205 1287.57,634.472C1286.05,633.738 1284.78,632.755 1283.77,631.522C1282.75,630.288 1281.99,628.88 1281.49,627.297C1280.99,625.713 1280.74,624.055 1280.74,622.322C1280.74,620.455 1281.02,618.663 1281.59,616.947C1282.16,615.23 1283.01,613.713 1284.14,612.397C1285.27,611.08 1286.71,610.03 1288.44,609.247C1290.17,608.463 1292.19,608.072 1294.49,608.072C1296.26,608.072 1297.83,608.388 1299.22,609.022C1300.6,609.655 1301.79,610.513 1302.79,611.597C1303.79,612.68 1304.58,613.922 1305.17,615.322C1305.75,616.722 1306.12,618.188 1306.29,619.722ZM1299.34,619.222C1299.27,618.522 1299.09,617.83 1298.79,617.147C1298.49,616.463 1298.1,615.863 1297.62,615.347C1297.13,614.83 1296.56,614.405 1295.89,614.072C1295.22,613.738 1294.49,613.572 1293.69,613.572C1292.89,613.572 1292.12,613.747 1291.37,614.097C1290.62,614.447 1289.97,614.922 1289.42,615.522C1288.87,616.122 1288.42,616.813 1288.09,617.597C1287.76,618.38 1287.59,619.222 1287.59,620.122L1299.34,619.222Z" style="fill:white;fill-rule:nonzero;"/>
                <path d="M1311.79,613.522C1311.79,612.388 1312.02,611.488 1312.49,610.822C1312.96,610.155 1313.52,609.647 1314.19,609.297C1314.86,608.947 1315.55,608.722 1316.27,608.622C1316.98,608.522 1317.59,608.472 1318.09,608.472C1318.36,608.472 1318.49,608.605 1318.49,608.872L1318.49,611.472C1318.49,611.638 1318.52,611.722 1318.59,611.722C1318.66,611.722 1318.72,611.688 1318.79,611.622C1319.59,610.655 1320.45,609.922 1321.37,609.422C1322.28,608.922 1323.31,608.672 1324.44,608.672C1324.57,608.672 1324.69,608.68 1324.79,608.697C1324.89,608.713 1324.99,608.722 1325.09,608.722C1326.06,608.788 1326.8,608.972 1327.32,609.272C1327.83,609.572 1328.09,609.855 1328.09,610.122C1328.09,610.322 1328,610.647 1327.82,611.097C1327.63,611.547 1327.36,611.997 1326.99,612.447C1326.62,612.897 1326.16,613.297 1325.59,613.647C1325.02,613.997 1324.34,614.172 1323.54,614.172C1322.91,614.172 1322.29,614.255 1321.69,614.422C1321.09,614.588 1320.55,614.863 1320.07,615.247C1319.58,615.63 1319.2,616.13 1318.92,616.747C1318.63,617.363 1318.49,618.122 1318.49,619.022L1318.49,630.672C1318.49,631.238 1318.39,631.788 1318.19,632.322C1317.99,632.855 1317.65,633.338 1317.17,633.772C1316.68,634.205 1316.04,634.547 1315.24,634.797C1314.44,635.047 1313.42,635.172 1312.19,635.172C1311.92,635.172 1311.79,635.038 1311.79,634.772L1311.79,613.522Z" style="fill:white;fill-rule:nonzero;"/>
                <path d="M1331.09,604.972C1331.09,603.905 1331.32,603.063 1331.77,602.447C1332.22,601.83 1332.77,601.347 1333.42,600.997C1334.07,600.647 1334.75,600.422 1335.47,600.322C1336.18,600.222 1336.82,600.172 1337.39,600.172C1337.66,600.172 1337.79,600.305 1337.79,600.572L1337.79,617.572L1345.49,610.522C1346.36,609.655 1347.39,609.122 1348.59,608.922C1349.79,608.722 1350.92,608.622 1351.99,608.622L1353.79,608.622C1354.09,608.622 1354.14,608.722 1353.94,608.922L1343.84,619.722L1353.94,634.822C1354.07,635.055 1353.97,635.172 1353.64,635.172L1352.99,635.172C1352.29,635.172 1351.57,635.155 1350.82,635.122C1350.07,635.088 1349.34,634.988 1348.64,634.822C1347.94,634.655 1347.28,634.397 1346.67,634.047C1346.05,633.697 1345.52,633.222 1345.09,632.622L1339.09,624.272L1337.79,625.572L1337.79,630.772C1337.79,631.805 1337.58,632.622 1337.17,633.222C1336.75,633.822 1336.22,634.263 1335.59,634.547C1334.96,634.83 1334.27,635.005 1333.54,635.072C1332.81,635.138 1332.12,635.172 1331.49,635.172C1331.22,635.172 1331.09,635.038 1331.09,634.772L1331.09,604.972Z" style="fill:white;fill-rule:nonzero;"/>
                <path d="M1373.59,618.572C1373.72,618.638 1373.79,618.672 1373.79,618.672C1373.86,618.672 1373.89,618.588 1373.89,618.422C1373.89,618.022 1373.85,617.488 1373.77,616.822C1373.68,616.155 1373.46,615.497 1373.09,614.847C1372.72,614.197 1372.17,613.638 1371.42,613.172C1370.67,612.705 1369.62,612.472 1368.29,612.472C1367.69,612.472 1366.88,612.572 1365.87,612.772C1364.85,612.972 1363.69,613.405 1362.39,614.072C1362.19,614.172 1361.99,614.222 1361.79,614.222C1361.42,614.222 1361.14,614.08 1360.94,613.797C1360.74,613.513 1360.74,613.188 1360.94,612.822C1361.77,611.322 1363.04,610.08 1364.74,609.097C1366.44,608.113 1368.37,607.622 1370.54,607.622C1372.17,607.622 1373.62,607.905 1374.89,608.472C1376.16,609.038 1377.22,609.805 1378.09,610.772C1378.96,611.738 1379.62,612.888 1380.07,614.222C1380.52,615.555 1380.74,616.972 1380.74,618.472L1380.69,634.772C1380.69,635.038 1380.56,635.172 1380.29,635.172C1379.72,635.172 1379.14,635.155 1378.54,635.122C1377.94,635.088 1377.39,634.997 1376.89,634.847C1376.39,634.697 1375.98,634.455 1375.67,634.122C1375.35,633.788 1375.19,633.322 1375.19,632.722C1375.19,632.522 1375.14,632.422 1375.04,632.422C1374.97,632.422 1374.91,632.472 1374.84,632.572C1374.17,633.405 1373.2,634.08 1371.92,634.597C1370.63,635.113 1369.26,635.372 1367.79,635.372C1366.46,635.372 1365.22,635.13 1364.09,634.647C1362.96,634.163 1361.97,633.497 1361.14,632.647C1360.31,631.797 1359.67,630.797 1359.22,629.647C1358.77,628.497 1358.54,627.255 1358.54,625.922C1358.54,624.322 1358.8,622.963 1359.32,621.847C1359.83,620.73 1360.52,619.822 1361.39,619.122C1362.26,618.422 1363.26,617.913 1364.39,617.597C1365.52,617.28 1366.69,617.122 1367.89,617.122C1368.49,617.122 1369.33,617.197 1370.42,617.347C1371.5,617.497 1372.56,617.905 1373.59,618.572ZM1365.29,625.722C1365.29,626.888 1365.63,627.855 1366.32,628.622C1367,629.388 1368.01,629.772 1369.34,629.772C1369.81,629.772 1370.31,629.713 1370.84,629.597C1371.37,629.48 1371.87,629.288 1372.32,629.022C1372.77,628.755 1373.14,628.405 1373.44,627.972C1373.74,627.538 1373.89,627.005 1373.89,626.372L1373.89,623.922C1372.59,622.488 1371.07,621.772 1369.34,621.772C1368.84,621.772 1368.35,621.838 1367.87,621.972C1367.38,622.105 1366.95,622.322 1366.57,622.622C1366.18,622.922 1365.87,623.322 1365.64,623.822C1365.41,624.322 1365.29,624.955 1365.29,625.722Z" style="fill:white;fill-rule:nonzero;"/>
                <path d="M1385.74,631.672C1385.74,631.338 1385.81,630.963 1385.94,630.547C1386.07,630.13 1386.28,629.747 1386.57,629.397C1386.85,629.047 1387.22,628.755 1387.67,628.522C1388.12,628.288 1388.66,628.172 1389.29,628.172C1389.92,628.172 1390.46,628.297 1390.89,628.547C1391.32,628.797 1391.68,629.097 1391.97,629.447C1392.25,629.797 1392.45,630.18 1392.57,630.597C1392.68,631.013 1392.74,631.372 1392.74,631.672C1392.74,631.972 1392.68,632.33 1392.57,632.747C1392.45,633.163 1392.25,633.547 1391.97,633.897C1391.68,634.247 1391.32,634.547 1390.89,634.797C1390.46,635.047 1389.92,635.172 1389.29,635.172C1388.66,635.172 1388.12,635.055 1387.67,634.822C1387.22,634.588 1386.85,634.297 1386.57,633.947C1386.28,633.597 1386.07,633.213 1385.94,632.797C1385.81,632.38 1385.74,632.005 1385.74,631.672Z" style="fill:white;fill-rule:nonzero;"/>
                <path d="M1397.74,604.972C1397.74,603.905 1397.97,603.063 1398.42,602.447C1398.87,601.83 1399.42,601.347 1400.07,600.997C1400.72,600.647 1401.4,600.422 1402.12,600.322C1402.83,600.222 1403.47,600.172 1404.04,600.172C1404.31,600.172 1404.44,600.305 1404.44,600.572L1404.44,617.572L1412.14,610.522C1413.01,609.655 1414.04,609.122 1415.24,608.922C1416.44,608.722 1417.57,608.622 1418.64,608.622L1420.44,608.622C1420.74,608.622 1420.79,608.722 1420.59,608.922L1410.49,619.722L1420.59,634.822C1420.72,635.055 1420.62,635.172 1420.29,635.172L1419.64,635.172C1418.94,635.172 1418.22,635.155 1417.47,635.122C1416.72,635.088 1415.99,634.988 1415.29,634.822C1414.59,634.655 1413.93,634.397 1413.32,634.047C1412.7,633.697 1412.17,633.222 1411.74,632.622L1405.74,624.272L1404.44,625.572L1404.44,630.772C1404.44,631.805 1404.23,632.622 1403.82,633.222C1403.4,633.822 1402.87,634.263 1402.24,634.547C1401.61,634.83 1400.92,635.005 1400.19,635.072C1399.46,635.138 1398.77,635.172 1398.14,635.172C1397.87,635.172 1397.74,635.038 1397.74,634.772L1397.74,604.972Z" style="fill:white;fill-rule:nonzero;"/>
                <path d="M1424.69,634.772C1424.69,633.572 1424.87,632.597 1425.22,631.847C1425.57,631.097 1425.92,630.488 1426.29,630.022L1438.79,614.172L1429.44,614.172C1428.71,614.172 1428.07,614.03 1427.52,613.747C1426.97,613.463 1426.52,613.088 1426.19,612.622C1425.86,612.155 1425.61,611.613 1425.44,610.997C1425.27,610.38 1425.19,609.738 1425.19,609.072C1425.19,608.805 1425.32,608.672 1425.59,608.672L1449.19,608.672C1449.42,608.672 1449.54,608.788 1449.54,609.022C1449.54,610.188 1449.32,611.18 1448.89,611.997C1448.46,612.813 1448.06,613.455 1447.69,613.922L1435.19,629.672L1445.64,629.722C1446.94,629.722 1447.92,630.188 1448.57,631.122C1449.22,632.055 1449.54,633.272 1449.54,634.772C1449.54,635.038 1449.41,635.172 1449.14,635.172L1425.09,635.172C1424.82,635.172 1424.69,635.038 1424.69,634.772Z" style="fill:white;fill-rule:nonzero;"/>
            </g>
        </g>
    </g>
</svg>
